<?xml version="1.0" encoding="UTF-8" standalone="no"?>
<!-- Generator: Adobe Illustrator 16.0.0, SVG Export Plug-In . SVG Version: 6.00 Build 0)  -->

<svg
   xmlns:dc="http://purl.org/dc/elements/1.1/"
   xmlns:cc="http://creativecommons.org/ns#"
   xmlns:rdf="http://www.w3.org/1999/02/22-rdf-syntax-ns#"
   xmlns:svg="http://www.w3.org/2000/svg"
   xmlns="http://www.w3.org/2000/svg"
   xmlns:sodipodi="http://sodipodi.sourceforge.net/DTD/sodipodi-0.dtd"
   xmlns:inkscape="http://www.inkscape.org/namespaces/inkscape"
   version="1.1"
   x="0px"
   y="0px"
   width="205"
   height="175"
   viewBox="0 0 205 175"
   enable-background="new 0 0 510.236 510.236"
   xml:space="preserve"
   id="svg130"
   sodipodi:docname="logo_ecosistema.svg"
   inkscape:version="0.92.4 (5da689c313, 2019-01-14)"><metadata
   id="metadata136"><rdf:RDF><cc:Work
       rdf:about=""><dc:format>image/svg+xml</dc:format><dc:type
         rdf:resource="http://purl.org/dc/dcmitype/StillImage" /><dc:title></dc:title></cc:Work></rdf:RDF></metadata><defs
   id="defs134" /><sodipodi:namedview
   pagecolor="#ffffff"
   bordercolor="#666666"
   borderopacity="1"
   objecttolerance="10"
   gridtolerance="10"
   guidetolerance="10"
   inkscape:pageopacity="0"
   inkscape:pageshadow="2"
   inkscape:window-width="1680"
   inkscape:window-height="987"
   id="namedview132"
   showgrid="false"
   inkscape:zoom="2.6164709"
   inkscape:cx="72.96148"
   inkscape:cy="97.974464"
   inkscape:window-x="-8"
   inkscape:window-y="-8"
   inkscape:window-maximized="1"
   inkscape:current-layer="svg130" />
<g
   id="Livello_2"
   transform="translate(0,-335.23599)">
</g>
<g
   id="Livello_1"
   transform="matrix(0.3830087,0,0,0.3830087,5.9191631,-11.287912)">
	<g
   id="g65">
		<path
   d="m 66.121,406.248 c -0.295,-6.537 3.047,-10.272 9.338,-10.272 8.896,0 9.83,4.62 9.83,12.188 v 3.735 H 72.51 v 4.03 c 0.049,3.638 1.425,4.325 3.342,4.325 2.359,0 3.047,-1.72 2.949,-5.21 h 6.389 c 0.246,6.193 -2.31,10.125 -8.847,10.125 -7.372,0 -10.37,-3.489 -10.223,-11.648 v -7.273 z m 12.778,0.737 v -2.409 c -0.049,-2.801 -0.786,-3.686 -3.342,-3.686 -3.195,0 -3.047,2.457 -3.047,4.964 v 1.131 z"
   id="path3"
   inkscape:connector-curvature="0"
   style="fill:#414042" />
		<path
   d="m 100.279,406.346 v -3.096 c -0.098,-1.524 -0.835,-2.359 -2.211,-2.359 -2.458,0 -2.458,2.802 -2.409,6.192 v 6.537 c -0.147,5.406 0.492,6.389 2.409,6.635 1.966,-0.049 2.015,-1.867 2.211,-4.079 v -2.556 h 6.389 v 2.556 c 0,5.8 -2.408,8.994 -8.748,8.994 -5.652,0 -8.896,-2.998 -8.65,-10.37 v -8.994 c -0.049,-7.766 3.785,-9.83 8.65,-9.83 6.438,0 8.797,4.03 8.748,8.158 v 2.212 z"
   id="path5"
   inkscape:connector-curvature="0"
   style="fill:#414042" />
		<path
   d="m 110.059,411.556 c 0.049,-9.485 0.147,-15.58 9.78,-15.58 9.486,0 9.535,6.095 9.584,15.58 0.049,9.633 -1.327,13.762 -9.584,13.614 -8.404,0.147 -9.829,-3.982 -9.78,-13.614 z m 6.389,3.834 c 0,3.391 0.295,4.865 3.391,4.865 2.949,0 3.195,-1.475 3.195,-4.865 v -9.24 c 0,-2.604 0,-5.259 -3.195,-5.259 -3.391,0 -3.391,2.654 -3.391,5.259 z"
   id="path7"
   inkscape:connector-curvature="0"
   style="fill:#414042" />
		<path
   d="m 138.614,415.291 c -0.491,5.111 1.475,4.964 2.949,4.964 1.818,0 3.096,-1.327 2.654,-3.097 -0.098,-1.572 -1.917,-2.457 -3.146,-3.293 l -3.489,-2.408 c -3.195,-2.211 -5.259,-4.767 -5.259,-8.748 0,-4.276 3.392,-6.733 9.535,-6.733 6.192,0 9.043,3.244 8.896,9.19 h -6.389 c 0.147,-3.096 -0.737,-4.275 -2.949,-4.275 -1.524,0 -2.703,0.688 -2.703,2.261 0,1.622 1.179,2.359 2.408,3.194 l 5.209,3.539 c 1.622,0.934 4.178,3.588 4.375,5.455 0.541,4.816 -0.639,9.83 -9.486,9.83 -3.391,0 -9.731,-1.426 -8.994,-9.879 z"
   id="path9"
   inkscape:connector-curvature="0"
   style="fill:#414042" />
		<path
   d="m 155.029,393.371 v -5.8 h 6.389 v 5.8 z m 0,31.062 v -27.72 h 6.389 v 27.72 z"
   id="path11"
   inkscape:connector-curvature="0"
   style="fill:#414042" />
		<path
   d="m 171.642,415.291 c -0.491,5.111 1.475,4.964 2.949,4.964 1.818,0 3.096,-1.327 2.654,-3.097 -0.098,-1.572 -1.917,-2.457 -3.146,-3.293 l -3.489,-2.408 c -3.195,-2.211 -5.259,-4.767 -5.259,-8.748 0,-4.276 3.392,-6.733 9.535,-6.733 6.192,0 9.043,3.244 8.896,9.19 h -6.389 c 0.147,-3.096 -0.737,-4.275 -2.949,-4.275 -1.524,0 -2.703,0.688 -2.703,2.261 0,1.622 1.179,2.359 2.408,3.194 l 5.209,3.539 c 1.622,0.934 4.178,3.588 4.375,5.455 0.541,4.816 -0.639,9.83 -9.486,9.83 -3.391,0 -9.731,-1.426 -8.994,-9.879 z"
   id="path13"
   inkscape:connector-curvature="0"
   style="fill:#414042" />
		<path
   d="m 196.805,424.531 c -3.784,0.442 -9.092,0.786 -9.092,-4.375 v -18.774 h -2.605 v -4.669 h 2.556 v -7.618 h 6.438 v 7.618 h 2.703 v 4.669 h -2.703 v 17.202 c 0.147,1.18 1.917,1.032 2.703,0.934 z"
   id="path15"
   inkscape:connector-curvature="0"
   style="fill:#414042" />
		<path
   d="m 199.459,406.248 c -0.295,-6.537 3.047,-10.272 9.338,-10.272 8.896,0 9.83,4.62 9.83,12.188 v 3.735 h -12.779 v 4.03 c 0.049,3.638 1.425,4.325 3.342,4.325 2.359,0 3.047,-1.72 2.949,-5.21 h 6.389 c 0.246,6.193 -2.31,10.125 -8.847,10.125 -7.372,0 -10.37,-3.489 -10.223,-11.648 v -7.273 z m 12.779,0.737 v -2.409 c -0.049,-2.801 -0.786,-3.686 -3.342,-3.686 -3.195,0 -3.047,2.457 -3.047,4.964 v 1.131 z"
   id="path17"
   inkscape:connector-curvature="0"
   style="fill:#414042" />
		<path
   d="m 229.834,399.563 h 0.098 c 1.426,-3.047 4.03,-3.489 6.095,-3.588 2.359,-0.049 5.505,0.983 5.898,3.588 h 0.098 c 1.229,-2.408 3.244,-3.588 6.39,-3.588 4.718,0 6.782,2.949 6.782,5.897 v 22.56 h -6.39 v -18.726 c 0,-2.507 -0.245,-4.964 -3.047,-4.816 -2.752,0.147 -3.244,2.064 -3.244,5.308 v 18.234 h -6.389 v -19.069 c 0,-2.458 -0.196,-4.522 -3.146,-4.473 -2.998,0.049 -3.146,2.261 -3.146,5.308 v 18.234 h -6.39 v -27.72 h 6.39 v 2.851 z"
   id="path19"
   inkscape:connector-curvature="0"
   style="fill:#414042" />
		<path
   d="m 272.79,424.433 c -0.442,-0.885 -0.491,-1.867 -0.394,-2.851 h -0.098 c -0.737,1.131 -1.573,2.064 -2.556,2.654 -0.935,0.59 -1.966,0.934 -3.048,0.934 -5.16,0 -7.421,-2.604 -7.421,-8.307 0,-6.34 4.473,-7.863 9.485,-9.928 2.703,-1.13 3.687,-2.359 3.146,-4.62 -0.295,-1.229 -1.277,-1.425 -2.998,-1.425 -2.899,0 -3.392,1.523 -3.342,4.03 h -6.095 c -0.049,-5.259 1.671,-8.945 9.683,-8.945 8.699,0 9.239,4.571 9.142,8.208 v 16.366 c 0,1.327 0.196,2.604 0.54,3.883 h -6.044 z m -0.885,-14.597 c -1.572,1.081 -3.489,2.162 -5.16,3.538 -0.935,0.786 -1.082,2.163 -1.082,3.342 0,2.114 0.64,3.539 2.998,3.539 3.785,0 3.097,-4.768 3.244,-7.421 z"
   id="path21"
   inkscape:connector-curvature="0"
   style="fill:#414042" />
		<path
   d="m 306.506,421.483 h -0.098 c -1.229,2.802 -2.998,3.539 -5.505,3.687 -5.406,0 -6.537,-4.915 -6.685,-9.338 v -10.026 c 0.147,-7.618 2.556,-9.731 6.685,-9.83 2.703,-0.049 4.424,0.885 5.701,3.539 h 0.099 c -0.147,-0.836 -0.197,-1.622 -0.197,-2.458 v -9.485 h 6.39 v 36.861 h -6.39 z m 0,-14.449 c 0.099,-2.212 0,-6.144 -2.998,-6.144 -2.998,0 -2.703,2.604 -2.899,5.357 v 9.239 c 0.147,2.654 0.836,4.768 2.802,4.768 2.064,0 3.096,-1.72 3.096,-4.915 v -8.305 z"
   id="path23"
   inkscape:connector-curvature="0"
   style="fill:#414042" />
		<path
   d="m 318.596,393.371 v -5.8 h 6.39 v 5.8 z m 0,31.062 v -27.72 h 6.39 v 27.72 z"
   id="path25"
   inkscape:connector-curvature="0"
   style="fill:#414042" />
		<path
   d="m 336.683,427.529 c 0,0.59 0.295,0.982 0.737,1.229 0.491,0.295 1.18,0.394 1.966,0.394 2.703,0 3.194,-2.163 3.194,-4.325 v -3.195 l -0.098,-0.098 c -1.278,2.653 -3.097,3.489 -5.849,3.637 -5.406,0 -6.488,-4.866 -6.636,-9.289 v -10.026 c 0.147,-7.618 2.507,-9.78 6.636,-9.879 2.899,-0.049 4.669,1.081 5.554,3.588 h 0.098 v -2.851 h 6.39 v 26.884 c 0,5.652 -1.572,10.174 -10.321,10.174 -4.227,0 -7.716,-1.572 -8.061,-6.241 h 6.39 z m 2.604,-26.638 c -2.998,0 -2.703,2.604 -2.899,5.357 v 9.239 c 0.147,2.654 0.836,4.768 2.802,4.768 2.064,0 3.096,-1.72 3.096,-4.915 v -8.306 c 0.098,-2.212 -10e-4,-6.143 -2.999,-6.143 z"
   id="path27"
   inkscape:connector-curvature="0"
   style="fill:#414042" />
		<path
   d="m 354.376,393.371 v -5.8 h 6.39 v 5.8 z m 0,31.062 v -27.72 h 6.39 v 27.72 z"
   id="path29"
   inkscape:connector-curvature="0"
   style="fill:#414042" />
		<path
   d="m 375.56,424.531 c -3.785,0.442 -9.093,0.786 -9.093,-4.375 v -18.774 h -2.604 v -4.669 h 2.556 v -7.618 h 6.438 v 7.618 h 2.703 v 4.669 h -2.703 v 17.202 c 0.147,1.18 1.916,1.032 2.703,0.934 z"
   id="path31"
   inkscape:connector-curvature="0"
   style="fill:#414042" />
		<path
   d="m 391.188,424.433 c -0.442,-0.885 -0.491,-1.867 -0.394,-2.851 h -0.098 c -0.737,1.131 -1.573,2.064 -2.556,2.654 -0.935,0.59 -1.966,0.934 -3.048,0.934 -5.16,0 -7.421,-2.604 -7.421,-8.307 0,-6.34 4.473,-7.863 9.485,-9.928 2.703,-1.13 3.687,-2.359 3.146,-4.62 -0.295,-1.229 -1.277,-1.425 -2.998,-1.425 -2.899,0 -3.392,1.523 -3.342,4.03 h -6.095 c -0.049,-5.259 1.671,-8.945 9.683,-8.945 8.699,0 9.239,4.571 9.142,8.208 v 16.366 c 0,1.327 0.196,2.604 0.54,3.883 h -6.044 z m -0.884,-14.597 c -1.572,1.081 -3.489,2.162 -5.16,3.538 -0.935,0.786 -1.082,2.163 -1.082,3.342 0,2.114 0.64,3.539 2.998,3.539 3.785,0 3.097,-4.768 3.244,-7.421 z"
   id="path33"
   inkscape:connector-curvature="0"
   style="fill:#414042" />
		<path
   d="m 402.59,424.433 v -36.861 h 6.39 v 36.861 z"
   id="path35"
   inkscape:connector-curvature="0"
   style="fill:#414042" />
		<path
   d="m 413.992,406.248 c -0.295,-6.537 3.048,-10.272 9.339,-10.272 8.896,0 9.829,4.62 9.829,12.188 v 3.735 h -12.778 v 4.03 c 0.049,3.638 1.426,4.325 3.342,4.325 2.359,0 3.048,-1.72 2.949,-5.21 h 6.39 c 0.245,6.193 -2.311,10.125 -8.847,10.125 -7.373,0 -10.371,-3.489 -10.224,-11.648 z m 12.779,0.737 v -2.409 c -0.05,-2.801 -0.787,-3.686 -3.343,-3.686 -3.194,0 -3.047,2.457 -3.047,4.964 v 1.131 z"
   id="path37"
   inkscape:connector-curvature="0"
   style="fill:#414042" />
		<path
   d="m 123.039,462.278 v 15.771 h -2.904 v -33.508 h 6.478 c 6.121,0 10.321,1.787 10.321,8.578 0,3.261 -1.385,7.104 -4.915,7.863 v 0.089 c 3.887,0.983 4.423,3.977 4.468,8.176 0.09,1.608 -0.134,7.506 1.52,8.399 v 0.402 h -3.172 c -1.251,-2.814 -1.162,-8.533 -1.34,-10.99 -0.313,-4.469 -3.664,-4.781 -7.461,-4.781 h -2.995 z m 0,-2.59 h 5.093 c 0.983,0 5.897,-0.357 5.897,-6.345 0,-4.914 -2.234,-6.21 -6.791,-6.21 h -4.2 v 12.555 z"
   id="path39"
   inkscape:connector-curvature="0"
   style="fill:#414042" />
		<path
   d="m 141.536,478.05 v -33.508 h 15.19 v 2.591 H 144.44 v 12.063 h 11.169 v 2.591 H 144.44 v 13.671 h 12.51 v 2.592 z"
   id="path41"
   inkscape:connector-curvature="0"
   style="fill:#414042" />
		<path
   d="m 168.746,464.021 v -2.591 h 10.097 v 16.62 h -2.323 l -0.268,-3.44 h -0.09 c -1.653,2.859 -3.932,4.245 -7.282,4.245 -9.427,0 -9.561,-11.438 -9.561,-18.229 0,-7.148 0.492,-16.889 9.963,-16.889 5.584,0 9.069,4.557 9.069,9.963 h -2.77 c -0.492,-3.619 -1.876,-7.371 -6.21,-7.371 -7.416,0 -7.148,10.365 -7.148,14.967 0,4.602 0.09,14.967 6.881,14.967 6.344,0 6.657,-7.461 6.835,-12.242 z"
   id="path43"
   inkscape:connector-curvature="0"
   style="fill:#414042" />
		<path
   d="m 184.519,478.05 v -33.508 h 2.904 v 33.508 z"
   id="path45"
   inkscape:connector-curvature="0"
   style="fill:#414042" />
		<path
   d="m 192.381,460.357 c 0,-6.88 0.938,-16.62 9.829,-16.62 9.829,0 9.874,10.99 9.874,18.273 0,7.282 -0.536,16.844 -9.963,16.844 -9.695,0 -9.74,-11.393 -9.74,-18.497 z m 16.799,0.984 c 0,-4.915 0.044,-15.012 -7.104,-15.012 -6.746,0 -6.791,9.873 -6.791,14.698 0,5.138 -0.268,15.235 7.104,15.235 7.059,10e-4 6.791,-10.186 6.791,-14.921 z"
   id="path47"
   inkscape:connector-curvature="0"
   style="fill:#414042" />
		<path
   d="m 232.414,473.313 h 0.09 v -28.771 h 2.903 v 33.508 h -3.529 l -12.42,-28.684 h -0.09 v 28.684 h -2.904 v -33.508 h 3.619 z"
   id="path49"
   inkscape:connector-curvature="0"
   style="fill:#414042" />
		<path
   d="m 240.234,478.05 v -33.508 h 15.19 v 2.591 h -12.286 v 12.063 h 11.169 v 2.591 h -11.169 v 13.671 h 12.51 v 2.592 z"
   id="path51"
   inkscape:connector-curvature="0"
   style="fill:#414042" />
		<path
   d="m 268.025,444.542 h 2.903 v 24.305 c 0,4.735 1.072,7.416 6.121,7.416 5.228,0 6.389,-3.172 6.389,-7.685 v -24.036 h 2.904 v 23.321 c 0,6.522 -1.966,10.991 -9.203,10.991 -6.434,0 -9.114,-3.53 -9.114,-9.65 z"
   id="path53"
   inkscape:connector-curvature="0"
   style="fill:#414042" />
		<path
   d="m 294.655,478.05 h -2.903 v -33.508 h 4.87 l 7.952,29.219 h 0.089 l 8.132,-29.219 h 4.735 v 33.508 h -2.903 v -30.604 h -0.09 l -8.31,30.604 h -3.083 l -8.399,-30.604 h -0.09 z"
   id="path55"
   inkscape:connector-curvature="0"
   style="fill:#414042" />
		<path
   d="m 322.401,478.05 v -33.508 h 7.328 c 2.278,0 4.914,0.223 6.701,1.831 1.832,1.608 2.547,3.888 2.547,6.345 0,3.351 -1.251,6.389 -4.558,7.595 v 0.09 c 3.888,1.027 5.495,4.065 5.495,7.997 0,8.488 -5.674,9.65 -12.911,9.65 z m 5.899,-18.854 c 4.735,0 7.773,-0.983 7.773,-6.39 0,-5.271 -3.664,-5.674 -8.042,-5.674 h -2.726 v 12.063 h 2.995 z m -2.994,2.591 v 13.671 h 3.619 c 5.138,0 8.087,-1.385 8.087,-7.104 0,-6.031 -3.798,-6.567 -8.668,-6.567 z"
   id="path57"
   inkscape:connector-curvature="0"
   style="fill:#414042" />
		<path
   d="m 346.574,462.278 v 15.771 h -2.904 v -33.508 h 6.479 c 6.121,0 10.32,1.787 10.32,8.578 0,3.261 -1.385,7.104 -4.914,7.863 v 0.089 c 3.887,0.983 4.423,3.977 4.468,8.176 0.089,1.608 -0.135,7.506 1.519,8.399 v 0.402 h -3.172 c -1.251,-2.814 -1.161,-8.533 -1.341,-10.99 -0.313,-4.469 -3.663,-4.781 -7.461,-4.781 h -2.994 z m 0,-2.59 h 5.093 c 0.983,0 5.898,-0.357 5.898,-6.345 0,-4.914 -2.234,-6.21 -6.791,-6.21 h -4.2 z"
   id="path59"
   inkscape:connector-curvature="0"
   style="fill:#414042" />
		<path
   d="m 365.608,478.05 v -33.508 h 2.904 v 33.508 z"
   id="path61"
   inkscape:connector-curvature="0"
   style="fill:#414042" />
		<path
   d="m 383.747,444.542 8.98,33.508 h -2.949 l -2.636,-10.32 h -10.187 l -2.726,10.32 h -2.814 l 8.98,-33.508 z m 2.77,20.596 -4.423,-16.933 h -0.089 l -4.424,16.933 z"
   id="path63"
   inkscape:connector-curvature="0"
   style="fill:#414042" />
	</g>
	<g
   id="g127">
		<path
   d="m 212.246,139.616 -20.453,-19.338 c 2.365,-4.321 3.874,-9.213 3.874,-14.483 0,-16.752 -13.575,-30.327 -30.331,-30.327 -16.75,0 -30.333,13.575 -30.333,30.327 0,16.719 13.583,30.3 30.333,30.3 5.898,0 11.378,-1.754 16.021,-4.681 l 20.421,19.295 c 3.096,-4.082 6.56,-7.818 10.468,-11.093 z m 0,0"
   id="path67"
   inkscape:connector-curvature="0"
   style="fill:#ed1c24" />
		<path
   d="m 298.668,137.176 27.155,-45.687 c 2.686,0.759 5.444,1.322 8.376,1.322 16.754,0 30.331,-13.583 30.331,-30.336 0,-16.714 -13.577,-30.287 -30.331,-30.287 -16.754,0 -30.296,13.534 -30.296,30.287 0,8.311 3.349,15.853 8.761,21.331 l -27.085,45.553 c 4.676,2.124 9.039,4.742 13.089,7.817 z m 0,0"
   id="path69"
   inkscape:connector-curvature="0"
   style="fill:#55924e" />
		<path
   d="m 392.315,175.425 c -13.021,0 -24.055,8.312 -28.345,19.864 l -37.729,-3.732 c 0,0.276 0.033,0.554 0.033,0.827 0,4.928 -0.521,9.738 -1.503,14.39 l 37.698,3.7 c 2.303,14.484 14.729,25.57 29.846,25.57 16.749,0 30.327,-13.564 30.327,-30.284 10e-4,-16.753 -13.578,-30.335 -30.327,-30.335 z m 0,0"
   id="path71"
   inkscape:connector-curvature="0"
   style="fill:#f7941e" />
		<path
   d="m 288.234,294.63 -8.451,-36.861 c -4.746,1.624 -9.701,2.811 -14.877,3.425 l 8.458,36.888 c -9.705,5.062 -16.378,15.081 -16.378,26.773 0,16.717 13.547,30.278 30.336,30.278 16.723,0 30.296,-13.562 30.296,-30.278 0,-16.441 -13.086,-29.736 -29.384,-30.225 z m 0,0"
   id="path73"
   inkscape:connector-curvature="0"
   style="fill:#007dc5" />
		<path
   d="m 189.271,207.008 -46.943,15.751 c -5.4,-8.28 -14.753,-13.752 -25.364,-13.752 -16.756,0 -30.297,13.534 -30.297,30.282 0,16.757 13.541,30.349 30.297,30.349 16.75,0 30.331,-13.592 30.331,-30.349 0,-0.697 -0.142,-1.36 -0.211,-2.005 l 47.12,-15.791 c -2.128,-4.597 -3.814,-9.414 -4.933,-14.485 z m 0,0"
   id="path75"
   inkscape:connector-curvature="0"
   style="fill:#92278f" />
		<path
   d="m 308.962,192.383 c 0,28.726 -23.243,51.984 -51.976,51.984 -28.684,0 -51.965,-23.258 -51.965,-51.984 0,-28.682 23.281,-51.965 51.965,-51.965 28.733,0 51.976,23.284 51.976,51.965 z m 0,0"
   id="path77"
   inkscape:connector-curvature="0"
   style="fill:#414042" />
		<g
   id="g85"
   style="opacity:0.65">
			<g
   id="g83">
				<path
   d="m 394.604,205.245 c 4.471,-0.003 6.079,-4.479 6.502,-8.157 0.518,-4.529 -1.625,-7.939 -6.502,-7.939 -4.878,0 -7.021,3.407 -6.501,7.939 0.422,3.678 2.03,8.157 6.501,8.157 z m 0,0"
   id="path79"
   inkscape:connector-curvature="0"
   style="fill:#ffffff" />
				<path
   d="m 406.699,215.905 c -0.048,-1.428 -0.215,-2.861 -0.464,-4.268 -0.304,-1.701 -0.686,-4.196 -2.173,-5.306 -0.859,-0.641 -1.972,-0.85 -2.953,-1.237 -0.481,-0.187 -0.908,-0.376 -1.314,-0.588 -1.356,1.491 -3.126,2.269 -5.19,2.269 -2.063,0 -3.836,-0.778 -5.192,-2.269 -0.402,0.212 -0.832,0.401 -1.312,0.588 -0.984,0.388 -2.095,0.597 -2.956,1.237 -1.483,1.11 -1.869,3.605 -2.17,5.306 -0.251,1.407 -0.418,2.839 -0.467,4.268 -0.038,1.104 0.512,1.259 1.434,1.592 1.157,0.419 2.351,0.729 3.557,0.983 2.324,0.49 4.721,0.868 7.106,0.886 2.386,-0.018 4.779,-0.396 7.104,-0.886 1.205,-0.253 2.401,-0.564 3.559,-0.983 0.923,-0.333 1.468,-0.489 1.431,-1.592 z m 0,0"
   id="path81"
   inkscape:connector-curvature="0"
   style="fill:#ffffff" />
			</g>
		</g>
		<g
   id="g93"
   style="opacity:0.65">
			<g
   id="g91">
				<path
   d="m 287.981,325.538 c 4.474,0 6.08,-4.479 6.503,-8.156 0.516,-4.529 -1.625,-7.938 -6.503,-7.938 -4.877,0 -7.02,3.405 -6.501,7.938 0.421,3.677 2.031,8.156 6.501,8.156 z m 0,0"
   id="path87"
   inkscape:connector-curvature="0"
   style="fill:#ffffff" />
				<path
   d="m 300.076,336.196 c -0.046,-1.426 -0.214,-2.858 -0.463,-4.264 -0.304,-1.704 -0.686,-4.198 -2.174,-5.306 -0.857,-0.643 -1.971,-0.853 -2.953,-1.237 -0.48,-0.189 -0.907,-0.376 -1.313,-0.589 -1.358,1.487 -3.129,2.269 -5.194,2.269 -2.061,0 -3.833,-0.781 -5.19,-2.269 -0.402,0.213 -0.832,0.399 -1.309,0.589 -0.985,0.385 -2.099,0.595 -2.957,1.237 -1.485,1.107 -1.87,3.602 -2.173,5.306 -0.249,1.405 -0.416,2.838 -0.466,4.264 -0.037,1.107 0.51,1.26 1.434,1.594 1.156,0.419 2.352,0.729 3.557,0.983 2.325,0.488 4.722,0.868 7.106,0.887 2.386,-0.019 4.78,-0.398 7.104,-0.887 1.207,-0.254 2.403,-0.564 3.559,-0.983 0.926,-0.334 1.47,-0.486 1.432,-1.594 z m 0,0"
   id="path89"
   inkscape:connector-curvature="0"
   style="fill:#ffffff" />
			</g>
		</g>
		<g
   id="g101"
   style="opacity:0.65">
			<g
   id="g99">
				<path
   d="m 116.872,239.311 c 4.473,-0.002 6.082,-4.48 6.503,-8.156 0.518,-4.529 -1.626,-7.94 -6.503,-7.94 -4.877,0 -7.019,3.411 -6.499,7.94 0.42,3.676 2.029,8.156 6.499,8.156 z m 0,0"
   id="path95"
   inkscape:connector-curvature="0"
   style="fill:#ffffff" />
				<path
   d="m 128.967,249.971 c -0.046,-1.427 -0.215,-2.861 -0.464,-4.267 -0.301,-1.701 -0.686,-4.198 -2.172,-5.305 -0.859,-0.642 -1.971,-0.852 -2.954,-1.238 -0.48,-0.188 -0.908,-0.375 -1.311,-0.588 -1.358,1.489 -3.129,2.269 -5.195,2.269 -2.058,0 -3.834,-0.78 -5.191,-2.269 -0.403,0.213 -0.832,0.399 -1.308,0.588 -0.984,0.387 -2.099,0.597 -2.958,1.238 -1.485,1.107 -1.868,3.604 -2.171,5.305 -0.249,1.406 -0.417,2.84 -0.464,4.267 -0.039,1.105 0.508,1.261 1.432,1.593 1.158,0.417 2.354,0.728 3.557,0.981 2.326,0.489 4.72,0.868 7.106,0.887 2.386,-0.019 4.782,-0.398 7.106,-0.887 1.205,-0.253 2.401,-0.564 3.56,-0.981 0.922,-0.332 1.466,-0.487 1.427,-1.593 z m 0,0"
   id="path97"
   inkscape:connector-curvature="0"
   style="fill:#ffffff" />
			</g>
		</g>
		<g
   id="g109"
   style="opacity:0.65">
			<g
   id="g107">
				<path
   d="m 165.143,104.944 c 4.473,-0.001 6.08,-4.479 6.503,-8.155 0.516,-4.529 -1.625,-7.94 -6.503,-7.94 -4.877,0 -7.019,3.41 -6.501,7.94 0.422,3.676 2.029,8.155 6.501,8.155 z m 0,0"
   id="path103"
   inkscape:connector-curvature="0"
   style="fill:#ffffff" />
				<path
   d="m 177.237,115.605 c -0.046,-1.427 -0.215,-2.861 -0.464,-4.266 -0.302,-1.702 -0.686,-4.198 -2.173,-5.306 -0.858,-0.642 -1.971,-0.851 -2.954,-1.238 -0.48,-0.188 -0.908,-0.376 -1.312,-0.589 -1.358,1.489 -3.13,2.269 -5.194,2.269 -2.059,0 -3.833,-0.78 -5.192,-2.269 -0.403,0.213 -0.832,0.401 -1.308,0.589 -0.984,0.387 -2.098,0.597 -2.957,1.238 -1.487,1.107 -1.87,3.604 -2.171,5.306 -0.25,1.405 -0.419,2.839 -0.466,4.266 -0.037,1.106 0.508,1.26 1.433,1.593 1.156,0.418 2.353,0.729 3.556,0.982 2.326,0.49 4.722,0.869 7.107,0.886 2.385,-0.018 4.781,-0.396 7.105,-0.886 1.205,-0.253 2.4,-0.564 3.56,-0.982 0.924,-0.333 1.469,-0.487 1.43,-1.593 z m 0,0"
   id="path105"
   inkscape:connector-curvature="0"
   style="fill:#ffffff" />
			</g>
		</g>
		<g
   id="g117"
   style="opacity:0.65">
			<g
   id="g115">
				<path
   d="m 334.196,61.275 c 4.472,-10e-4 6.08,-4.478 6.502,-8.155 0.518,-4.528 -1.624,-7.94 -6.502,-7.94 -4.877,0 -7.019,3.41 -6.501,7.94 0.422,3.677 2.03,8.155 6.501,8.155 z m 0,0"
   id="path111"
   inkscape:connector-curvature="0"
   style="fill:#ffffff" />
				<path
   d="m 346.292,71.937 c -0.049,-1.427 -0.215,-2.861 -0.464,-4.267 -0.303,-1.702 -0.686,-4.197 -2.174,-5.305 -0.858,-0.642 -1.972,-0.851 -2.955,-1.238 -0.479,-0.188 -0.905,-0.375 -1.31,-0.589 -1.359,1.49 -3.13,2.27 -5.196,2.27 -2.058,0 -3.832,-0.78 -5.19,-2.27 -0.402,0.214 -0.831,0.401 -1.309,0.589 -0.984,0.387 -2.098,0.596 -2.958,1.238 -1.485,1.108 -1.868,3.603 -2.168,5.305 -0.251,1.405 -0.42,2.84 -0.467,4.267 -0.039,1.106 0.508,1.26 1.433,1.594 1.156,0.418 2.353,0.727 3.556,0.98 2.323,0.492 4.72,0.869 7.106,0.887 2.385,-0.018 4.781,-0.396 7.104,-0.887 1.206,-0.254 2.402,-0.563 3.558,-0.98 0.928,-0.335 1.472,-0.489 1.434,-1.594 z m 0,0"
   id="path113"
   inkscape:connector-curvature="0"
   style="fill:#ffffff" />
			</g>
		</g>
		<g
   id="g125">
			<path
   d="m 241.055,213.765 c -0.9,0.087 -1.588,0.838 -1.599,1.747 l -0.017,1.79 c -0.017,0.91 0.651,1.672 1.546,1.784 l 1.32,0.17 c 0.228,0.804 0.539,1.573 0.941,2.299 l -0.854,1.052 c -0.564,0.696 -0.524,1.712 0.105,2.357 l 1.26,1.284 c 0.632,0.643 1.646,0.719 2.358,0.166 l 1.055,-0.814 c 0.749,0.435 1.538,0.784 2.362,1.022 l 0.144,1.369 c 0.092,0.894 0.85,1.583 1.748,1.592 l 1.788,0.02 c 0.91,0.018 1.679,-0.655 1.793,-1.552 l 0.168,-1.289 c 0.892,-0.219 1.738,-0.555 2.555,-0.999 l 0.992,0.805 c 0.701,0.567 1.706,0.525 2.36,-0.104 l 1.287,-1.261 c 0.64,-0.632 0.713,-1.641 0.157,-2.357 l -0.758,-0.988 c 0.467,-0.783 0.825,-1.613 1.078,-2.485 l 1.177,-0.12 c 0.899,-0.093 1.588,-0.85 1.599,-1.749 l 0.016,-1.799 c 0.018,-0.898 -0.652,-1.667 -1.545,-1.782 l -1.152,-0.152 c -0.22,-0.865 -0.547,-1.7 -0.974,-2.487 l 0.719,-0.879 c 0.565,-0.705 0.524,-1.713 -0.107,-2.356 l -1.26,-1.286 c -0.63,-0.648 -1.641,-0.713 -2.353,-0.168 l -0.865,0.663 c -0.809,-0.487 -1.676,-0.864 -2.586,-1.122 l -0.114,-1.113 c -0.087,-0.9 -0.844,-1.584 -1.744,-1.593 l -1.796,-0.021 c -0.905,-0.016 -1.671,0.655 -1.785,1.546 l -0.142,1.11 c -0.937,0.244 -1.837,0.613 -2.681,1.091 l -0.887,-0.723 c -0.697,-0.57 -1.716,-0.528 -2.358,0.105 l -1.289,1.266 c -0.65,0.634 -0.724,1.647 -0.168,2.362 l 0.761,0.978 c -0.441,0.786 -0.787,1.615 -1.013,2.489 z m 11.598,-2.038 c 2.578,0.029 4.645,2.153 4.617,4.734 -0.026,2.576 -2.153,4.649 -4.736,4.614 -2.571,-0.024 -4.638,-2.15 -4.614,-4.729 0.029,-2.581 2.154,-4.643 4.733,-4.619"
   id="path119"
   inkscape:connector-curvature="0"
   style="fill:#ffffff" />
			<path
   d="m 226.982,184.13 c 0.346,1.184 0.835,2.337 1.439,3.421 l -1.74,2.192 c -0.561,0.717 -0.505,1.741 0.134,2.386 l 3.001,3 c 0.647,0.647 1.668,0.703 2.387,0.136 l 2.176,-1.728 c 1.128,0.642 2.323,1.147 3.563,1.507 l 0.326,2.805 c 0.104,0.906 0.873,1.591 1.784,1.591 h 4.245 c 0.908,0 1.672,-0.685 1.781,-1.591 l 0.313,-2.708 c 1.336,-0.349 2.611,-0.871 3.817,-1.542 l 2.105,1.666 c 0.715,0.574 1.742,0.511 2.388,-0.131 l 3.001,-2.996 c 0.645,-0.648 0.698,-1.669 0.132,-2.387 l -1.639,-2.085 c 0.679,-1.175 1.213,-2.432 1.571,-3.748 l 2.526,-0.29 c 0.905,-0.109 1.591,-0.874 1.591,-1.781 v -4.246 c 0,-0.907 -0.686,-1.671 -1.591,-1.776 l -2.494,-0.304 c -0.341,-1.294 -0.854,-2.537 -1.508,-3.703 l 1.534,-1.937 c 0.566,-0.718 0.505,-1.74 -0.132,-2.387 l -2.992,-2.992 c -0.646,-0.648 -1.673,-0.706 -2.388,-0.135 l -1.881,1.487 c -1.224,-0.713 -2.529,-1.261 -3.9,-1.629 l -0.284,-2.437 c -0.105,-0.913 -0.875,-1.594 -1.783,-1.594 h -4.244 c -0.908,0 -1.672,0.681 -1.781,1.594 l -0.287,2.437 c -1.402,0.368 -2.745,0.945 -3.996,1.687 l -1.953,-1.545 c -0.719,-0.571 -1.739,-0.504 -2.387,0.135 l -3.001,2.996 c -0.647,0.643 -0.694,1.667 -0.134,2.385 l 1.63,2.065 c -0.648,1.186 -1.146,2.438 -1.471,3.749 l -2.612,0.301 c -0.917,0.102 -1.594,0.868 -1.594,1.778 v 4.24 c 0,0.914 0.676,1.678 1.594,1.788 z m 15.367,-11.482 c 3.865,0 7.01,3.152 7.01,7.01 0,3.875 -3.145,7.019 -7.01,7.019 -3.867,0 -7.012,-3.145 -7.012,-7.019 0,-3.858 3.144,-7.01 7.012,-7.01"
   id="path121"
   inkscape:connector-curvature="0"
   style="fill:#ffffff" />
			<path
   d="m 291.986,185.172 -2.236,-1.892 c -0.694,-0.579 -1.707,-0.554 -2.361,0.066 l -1.237,1.153 c -1.046,-0.505 -2.15,-0.857 -3.294,-1.059 l -0.354,-1.711 c -0.174,-0.877 -0.991,-1.491 -1.885,-1.42 l -2.92,0.25 c -0.9,0.075 -1.597,0.81 -1.631,1.713 l -0.053,1.732 c -1.125,0.404 -2.185,0.958 -3.149,1.655 l -1.472,-0.982 c -0.755,-0.497 -1.756,-0.354 -2.335,0.335 l -1.896,2.252 c -0.584,0.69 -0.559,1.701 0.061,2.358 l 1.294,1.384 c -0.449,1.002 -0.767,2.061 -0.949,3.15 l -1.848,0.377 c -0.877,0.172 -1.497,0.997 -1.419,1.886 l 0.247,2.921 c 0.081,0.896 0.81,1.598 1.713,1.627 l 1.995,0.063 c 0.359,0.954 0.843,1.857 1.414,2.697 l -1.116,1.689 c -0.498,0.748 -0.356,1.748 0.337,2.332 l 2.231,1.897 c 0.695,0.579 1.709,0.545 2.364,-0.072 l 1.462,-1.367 c 0.958,0.444 1.967,0.784 3.006,0.979 l 0.401,2.001 c 0.182,0.884 0.995,1.493 1.894,1.42 l 2.917,-0.248 c 0.897,-0.074 1.598,-0.808 1.629,-1.71 l 0.062,-1.964 c 1.067,-0.374 2.076,-0.881 3.01,-1.521 l 1.612,1.068 c 0.748,0.498 1.752,0.362 2.336,-0.331 l 1.888,-2.24 c 0.579,-0.69 0.556,-1.703 -0.06,-2.359 l -1.306,-1.373 c 0.479,-1.013 0.824,-2.077 1.022,-3.171 l 1.775,-0.364 c 0.883,-0.177 1.492,-0.995 1.426,-1.888 l -0.246,-2.921 c -0.086,-0.895 -0.812,-1.597 -1.716,-1.626 l -1.782,-0.058 c -0.375,-1.037 -0.871,-2.018 -1.486,-2.926 l 0.973,-1.466 c 0.513,-0.746 0.369,-1.757 -0.318,-2.336 m -11.006,16.876 c -3.148,0.269 -5.938,-2.085 -6.2,-5.231 -0.272,-3.157 2.076,-5.942 5.234,-6.207 3.152,-0.269 5.938,2.084 6.201,5.236 0.273,3.155 -2.079,5.941 -5.235,6.202"
   id="path123"
   inkscape:connector-curvature="0"
   style="fill:#ffffff" />
		</g>
	</g>
</g>
</svg>